<mxfile host="app.diagrams.net">
  <diagram name="ED Manager Use Case Diagram">
    <mxGraphModel dx="1134" dy="654" grid="1" gridSize="10" guides="1" tooltips="1" connect="1" arrows="1" fold="1" page="1" pageScale="1" pageWidth="827" pageHeight="1169" math="0" shadow="0">
      <root>
        <mxCell id="0" />
        <mxCell id="1" parent="0" />
        <!-- Emergency Department Manager -->
        <mxCell id="2" value="Emergency Department Manager" style="shape=actor;whiteSpace=wrap;html=1;" vertex="1" parent="1">
          <mxGeometry x="40" y="160" width="60" height="100" as="geometry" />
        </mxCell>
        <!-- Mister Ed System -->
        <mxCell id="3" value="Mister Ed System" style="shape=actor;whiteSpace=wrap;html=1;" vertex="1" parent="1">
          <mxGeometry x="40" y="300" width="60" height="100" as="geometry" />
        </mxCell>
        <!-- Patient -->
        <mxCell id="4" value="Patient" style="shape=actor;whiteSpace=wrap;html=1;" vertex="1" parent="1">
          <mxGeometry x="40" y="500" width="60" height="100" as="geometry" />
        </mxCell>
        <!-- Use Case: Manage Waitlist -->
        <mxCell id="5" value="Manage Waitlist" style="ellipse;whiteSpace=wrap;html=1;" vertex="1" parent="1">
          <mxGeometry x="200" y="100" width="160" height="60" as="geometry" />
        </mxCell>
        <!-- Use Case: Track ED Statistics -->
        <mxCell id="6" value="Track ED Statistics" style="ellipse;whiteSpace=wrap;html=1;" vertex="1" parent="1">
          <mxGeometry x="200" y="200" width="160" height="60" as="geometry" />
        </mxCell>
        <!-- Use Case: Auto Schedule Staff Shifts -->
        <mxCell id="7" value="Auto Schedule Staff Shifts" style="ellipse;whiteSpace=wrap;html=1;" vertex="1" parent="1">
          <mxGeometry x="200" y="300" width="160" height="60" as="geometry" />
        </mxCell>
        <!-- Use Case: Reorganize Patient Appointments -->
        <mxCell id="8" value="Reorganize Patient Appointments" style="ellipse;whiteSpace=wrap;html=1;" vertex="1" parent="1">
          <mxGeometry x="200" y="400" width="160" height="60" as="geometry" />
        </mxCell>
        <!-- Use Case: Toggle Wait Room Capacity -->
        <mxCell id="9" value="Toggle Wait Room Capacity" style="ellipse;whiteSpace=wrap;html=1;" vertex="1" parent="1">
          <mxGeometry x="200" y="500" width="160" height="60" as="geometry" />
        </mxCell>
        <!-- Connections -->
        <!-- ED Manager to Use Cases -->
        <mxCell id="10" style="edgeStyle=orthogonalEdgeStyle;rounded=0;orthogonalLoop=1;" edge="1" parent="1" source="2" target="5">
          <mxGeometry relative="1" as="geometry" />
        </mxCell>
        <mxCell id="11" style="edgeStyle=orthogonalEdgeStyle;rounded=0;orthogonalLoop=1;" edge="1" parent="1" source="2" target="6">
          <mxGeometry relative="1" as="geometry" />
        </mxCell>
        <mxCell id="12" style="edgeStyle=orthogonalEdgeStyle;rounded=0;orthogonalLoop=1;" edge="1" parent="1" source="2" target="7">
          <mxGeometry relative="1" as="geometry" />
        </mxCell>
        <mxCell id="13" style="edgeStyle=orthogonalEdgeStyle;rounded=0;orthogonalLoop=1;" edge="1" parent="1" source="2" target="8">
          <mxGeometry relative="1" as="geometry" />
        </mxCell>
        <mxCell id="14" style="edgeStyle=orthogonalEdgeStyle;rounded=0;orthogonalLoop=1;" edge="1" parent="1" source="2" target="9">
          <mxGeometry relative="1" as="geometry" />
        </mxCell>
        <!-- System to Use Cases -->
        <mxCell id="15" style="edgeStyle=orthogonalEdgeStyle;rounded=0;orthogonalLoop=1;" edge="1" parent="1" source="3" target="5">
          <mxGeometry relative="1" as="geometry" />
        </mxCell>
        <mxCell id="16" style="edgeStyle=orthogonalEdgeStyle;rounded=0;orthogonalLoop=1;" edge="1" parent="1" source="3" target="6">
          <mxGeometry relative="1" as="geometry" />
        </mxCell>
        <mxCell id="17" style="edgeStyle=orthogonalEdgeStyle;rounded=0;orthogonalLoop=1;" edge="1" parent="1" source="3" target="7">
          <mxGeometry relative="1" as="geometry" />
        </mxCell>
        <mxCell id="18" style="edgeStyle=orthogonalEdgeStyle;rounded=0;orthogonalLoop=1;" edge="1" parent="1" source="3" target="8">
          <mxGeometry relative="1" as="geometry" />
        </mxCell>
        <mxCell id="19" style="edgeStyle=orthogonalEdgeStyle;rounded=0;orthogonalLoop=1;" edge="1" parent="1" source="3" target="9">
          <mxGeometry relative="1" as="geometry" />
        </mxCell>
        <!-- Patient to Reorganize Appointments -->
        <mxCell id="20" style="edgeStyle=orthogonalEdgeStyle;rounded=0;orthogonalLoop=1;" edge="1" parent="1" source="4" target="8">
          <mxGeometry relative="1" as="geometry" />
        </mxCell>
      </root>
    </mxGraphModel>
  </diagram>
</mxfile>
